<?xml version="1.0" encoding="UTF-8"?><svg id="a" xmlns="http://www.w3.org/2000/svg" viewBox="0 0 300 65"><defs><style>.b{fill:#8e896f;}</style></defs><g><path class="b" d="M67.64,49.74h2.1v1.84h-2.1v-1.84Zm.03,2.8h2.04v7.63h-2.04v-7.63Z"/><path class="b" d="M71.84,52.55h1.99v1.05c.3-.45,.66-.77,1.07-.98,.41-.2,.84-.31,1.29-.31,.87,0,1.51,.23,1.93,.68s.63,1.17,.63,2.14v5.04h-2.04v-4.76c0-.54-.1-.9-.31-1.1-.21-.19-.48-.29-.82-.29-.26,0-.49,.04-.68,.12-.19,.08-.37,.19-.53,.34-.14,.14-.25,.3-.34,.49-.09,.19-.14,.4-.14,.62v4.59h-2.04v-7.63Z"/><path class="b" d="M84.48,49.74h2.18v4.03h4.13v-4.03h2.18v10.43h-2.18v-4.38h-4.13v4.38h-2.18v-10.43Z"/><path class="b" d="M100.04,60.44c-.78,0-1.48-.13-2.09-.38s-1.13-.62-1.56-1.1c-.43-.48-.76-1.05-.99-1.72s-.34-1.43-.34-2.28,.11-1.61,.34-2.28,.56-1.25,.99-1.72c.43-.48,.96-.84,1.57-1.1s1.3-.38,2.07-.38,1.48,.13,2.09,.38c.61,.25,1.13,.62,1.56,1.1,.42,.48,.75,1.05,.97,1.72s.34,1.43,.34,2.28-.11,1.61-.33,2.28-.54,1.25-.96,1.72c-.42,.48-.94,.84-1.56,1.1s-1.31,.38-2.1,.38Zm-.01-1.87c.92,0,1.6-.31,2.04-.93,.45-.62,.67-1.51,.67-2.67s-.22-2.04-.67-2.67c-.45-.63-1.13-.94-2.04-.94s-1.6,.31-2.04,.94c-.45,.63-.67,1.52-.67,2.67s.22,2.05,.67,2.67c.45,.62,1.13,.93,2.04,.93Z"/><path class="b" d="M109.45,51.63h-3.14v-1.88h8.47v1.88h-3.14v8.54h-2.19v-8.54Z"/><path class="b" d="M116.43,49.74h7.11v1.85h-4.94v2.28h4.64v1.87h-4.64v2.57h5.24l-.22,1.85h-7.2v-10.43Z"/><path class="b" d="M125.54,49.74h2.18v8.56h4.94l-.23,1.87h-6.88v-10.43Z"/><path class="b" d="M137.91,49.74h2.61l2.6,7.79,2.67-7.79h2.54v10.43h-2v-6.95l-2.38,6.95h-1.7l-2.39-6.94v6.94h-1.96v-10.43Z"/><path class="b" d="M150.77,49.74h7.11v1.85h-4.94v2.28h4.64v1.87h-4.64v2.57h5.24l-.22,1.85h-7.2v-10.43Z"/><path class="b" d="M162.25,51.63h-3.14v-1.88h8.47v1.88h-3.14v8.54h-2.19v-8.54Z"/><path class="b" d="M169.23,49.74h3.7c.82,0,1.49,.09,2.02,.28,.53,.19,.95,.44,1.25,.75,.3,.31,.51,.65,.63,1.02,.12,.37,.18,.74,.18,1.1,0,.67-.12,1.24-.36,1.69-.24,.46-.65,.84-1.23,1.15l2.12,4.43h-2.35l-1.75-3.91h-2.04v3.91h-2.15v-10.43Zm3.84,4.7c.34,0,.62-.04,.85-.11,.22-.07,.4-.18,.53-.31,.13-.13,.22-.29,.27-.47s.07-.39,.07-.61c0-.18-.03-.36-.09-.53s-.16-.32-.3-.45-.34-.23-.58-.31c-.25-.07-.56-.11-.94-.11h-1.51v2.91h1.69Z"/><path class="b" d="M183.7,60.44c-.78,0-1.48-.13-2.09-.38s-1.13-.62-1.56-1.1c-.43-.48-.76-1.05-.99-1.72s-.34-1.43-.34-2.28,.11-1.61,.34-2.28,.56-1.25,.99-1.72c.43-.48,.96-.84,1.57-1.1s1.3-.38,2.07-.38,1.48,.13,2.09,.38c.61,.25,1.13,.62,1.56,1.1,.42,.48,.75,1.05,.97,1.72s.34,1.43,.34,2.28-.11,1.61-.33,2.28-.54,1.25-.96,1.72c-.42,.48-.94,.84-1.56,1.1s-1.31,.38-2.1,.38Zm-.01-1.87c.92,0,1.6-.31,2.04-.93,.45-.62,.67-1.51,.67-2.67s-.22-2.04-.67-2.67c-.45-.63-1.13-.94-2.04-.94s-1.6,.31-2.04,.94c-.45,.63-.67,1.52-.67,2.67s.22,2.05,.67,2.67c.45,.62,1.13,.93,2.04,.93Z"/><path class="b" d="M190.74,49.74h3.73c.8,0,1.46,.09,1.98,.27,.52,.18,.93,.42,1.24,.72,.31,.3,.52,.64,.64,1.04,.12,.39,.18,.81,.18,1.23,0,.46-.06,.9-.18,1.31-.12,.42-.34,.79-.64,1.1-.31,.32-.72,.57-1.23,.75s-1.16,.28-1.94,.28h-1.64v3.72h-2.15v-10.43Zm3.71,4.89c.38,0,.69-.04,.94-.12,.25-.08,.45-.18,.59-.32,.15-.14,.25-.3,.3-.5,.05-.2,.08-.42,.08-.65s-.03-.46-.09-.64-.16-.34-.31-.47-.34-.22-.59-.29c-.25-.07-.56-.1-.94-.1h-1.55v3.1h1.56Z"/><path class="b" d="M205.03,60.44c-.78,0-1.48-.13-2.09-.38s-1.13-.62-1.56-1.1c-.43-.48-.76-1.05-.99-1.72s-.34-1.43-.34-2.28,.11-1.61,.34-2.28,.56-1.25,.99-1.72c.43-.48,.96-.84,1.57-1.1s1.3-.38,2.07-.38,1.48,.13,2.09,.38c.61,.25,1.13,.62,1.56,1.1,.42,.48,.75,1.05,.97,1.72s.34,1.43,.34,2.28-.11,1.61-.33,2.28-.54,1.25-.96,1.72c-.42,.48-.94,.84-1.56,1.1s-1.31,.38-2.1,.38Zm-.01-1.87c.92,0,1.6-.31,2.04-.93,.45-.62,.67-1.51,.67-2.67s-.22-2.04-.67-2.67c-.45-.63-1.13-.94-2.04-.94s-1.6,.31-2.04,.94c-.45,.63-.67,1.52-.67,2.67s.22,2.05,.67,2.67c.45,.62,1.13,.93,2.04,.93Z"/><path class="b" d="M212.07,49.74h2.18v8.56h4.94l-.23,1.87h-6.88v-10.43Z"/><path class="b" d="M220.89,49.74h2.18v10.43h-2.18v-10.43Z"/><path class="b" d="M227.86,51.63h-3.14v-1.88h8.47v1.88h-3.14v8.54h-2.19v-8.54Z"/><path class="b" d="M237.84,49.74h2.07l3.91,10.43h-2.34l-.83-2.41h-3.65l-.83,2.41h-2.25l3.91-10.43Zm2.25,6.22l-1.27-3.74-1.26,3.74h2.53Z"/><path class="b" d="M245.33,49.74h1.96l4.29,6.84v-6.84h2.12v10.43h-1.94l-4.31-6.78v6.78h-2.12v-10.43Z"/></g><g><g><path class="b" d="M90.97,16.39v22.06c0,.36-.29,.65-.65,.65h-1.81c-.36,0-.65-.29-.65-.65v-12.48c0-.63-.82-.89-1.18-.37l-7.21,10.23s-.06,.09-.11,.13c-.06,.04-.26,.04-.32,0-.05-.04-.11-.13-.11-.13l-7.05-9.83c-.37-.51-1.18-.25-1.18,.38v12.09c0,.36-.29,.65-.65,.65h-1.75c-.36,0-.65-.29-.65-.65V16.41c0-.47,.6-.66,.87-.28l10.18,14.37c.26,.37,.8,.37,1.06,0l10.34-14.4c.27-.38,.87-.19,.87,.28Z"/><path class="b" d="M110.76,26.32v12.13c0,.36-.29,.65-.65,.65h-1.72c-.36,0-.65-.29-.65-.65h0c0-.55-.63-.84-1.07-.5-.3,.23-.64,.46-1.01,.68-.91,.53-1.94,.8-3.08,.8-1.28,0-2.43-.28-3.45-.83-1.03-.55-1.84-1.36-2.43-2.42-.59-1.06-.89-2.32-.89-3.8s.31-2.75,.92-3.84c.62-1.09,1.45-1.94,2.5-2.53,1.05-.59,2.21-.89,3.49-.89,1.15,0,2.14,.25,2.98,.75,.41,.24,.78,.52,1.11,.83,.39,.37,1.03,.14,1.09-.4v-.05c.04-.33,.32-.58,.65-.58h1.56c.36,0,.65,.29,.65,.65Zm-4.53,9.68c.77-.6,1.27-1.41,1.49-2.43,.01-.05,.02-.11,.02-.16v-2.48c0-.07,0-.14-.03-.21-.27-.9-.8-1.64-1.59-2.22-.82-.59-1.76-.89-2.82-.89-.8,0-1.54,.19-2.22,.58-.68,.39-1.22,.94-1.62,1.64-.4,.7-.6,1.5-.6,2.38s.21,1.65,.62,2.37c.41,.71,.96,1.28,1.65,1.7,.69,.42,1.45,.63,2.27,.63,1.1,0,2.05-.31,2.84-.93Z"/><path class="b" d="M136.34,26.22c.77,.74,1.17,1.71,1.22,2.92v9.31c0,.36-.29,.65-.65,.65h-1.72c-.36,0-.65-.29-.65-.65v-8.21c-.06-1.58-.78-2.41-2.14-2.5-.78,0-1.48,.23-2.09,.7-.62,.47-1.1,1.08-1.44,1.83-.35,.76-.53,1.57-.55,2.43v5.74c0,.36-.29,.65-.65,.65h-1.75c-.36,0-.65-.29-.65-.65v-8.21c-.06-1.58-.8-2.41-2.21-2.5-.76,0-1.44,.23-2.06,.7-.62,.47-1.1,1.08-1.44,1.85-.35,.77-.52,1.58-.52,2.45v5.71c0,.36-.29,.65-.65,.65h-1.72c-.36,0-.65-.29-.65-.65v-12.13c0-.36,.29-.65,.65-.65h1.48c.34,0,.62,.26,.65,.59l.02,.21c.05,.55,.72,.8,1.1,.41,.35-.37,.74-.68,1.18-.95,.9-.54,1.92-.81,3.07-.81,1.08,0,1.99,.25,2.72,.76,.44,.31,.79,.68,1.04,1.12,.22,.39,.75,.42,1.05,.09,.43-.48,.92-.88,1.48-1.21,.86-.51,1.79-.76,2.79-.76,1.3,0,2.33,.37,3.1,1.1Z"/><path class="b" d="M163.1,26.22c.77,.74,1.17,1.71,1.22,2.92v9.31c0,.36-.29,.65-.65,.65h-1.72c-.36,0-.65-.29-.65-.65v-8.21c-.06-1.58-.78-2.41-2.14-2.5-.78,0-1.48,.23-2.09,.7-.62,.47-1.1,1.08-1.44,1.83-.35,.76-.53,1.57-.55,2.43v5.74c0,.36-.29,.65-.65,.65h-1.75c-.36,0-.65-.29-.65-.65v-8.21c-.06-1.58-.8-2.41-2.21-2.5-.76,0-1.44,.23-2.06,.7-.62,.47-1.1,1.08-1.44,1.85-.35,.77-.52,1.58-.52,2.45v5.71c0,.36-.29,.65-.65,.65h-1.72c-.36,0-.65-.29-.65-.65v-12.13c0-.36,.29-.65,.65-.65h1.48c.34,0,.62,.26,.65,.59l.02,.21c.05,.55,.72,.8,1.1,.41,.35-.37,.74-.68,1.18-.95,.9-.54,1.92-.81,3.07-.81,1.08,0,1.99,.25,2.72,.76,.44,.31,.79,.68,1.04,1.12,.22,.39,.75,.42,1.05,.09,.43-.48,.92-.88,1.48-1.21,.86-.51,1.79-.76,2.79-.76,1.3,0,2.33,.37,3.1,1.1Z"/><path class="b" d="M183.33,26.32v12.13c0,.36-.29,.65-.65,.65h-1.72c-.36,0-.65-.29-.65-.65h0c0-.55-.63-.84-1.07-.5-.3,.23-.64,.46-1.01,.68-.91,.53-1.94,.8-3.08,.8-1.28,0-2.43-.28-3.45-.83-1.03-.55-1.84-1.36-2.43-2.42-.59-1.06-.89-2.32-.89-3.8s.31-2.75,.92-3.84c.62-1.09,1.45-1.94,2.5-2.53,1.05-.59,2.21-.89,3.49-.89,1.15,0,2.14,.25,2.98,.75,.41,.24,.78,.52,1.11,.83,.39,.37,1.03,.14,1.09-.4v-.05c.04-.33,.32-.58,.65-.58h1.56c.36,0,.65,.29,.65,.65Zm-4.53,9.68c.77-.6,1.27-1.41,1.49-2.43,.01-.05,.02-.11,.02-.16v-2.48c0-.07,0-.14-.03-.21-.27-.9-.8-1.64-1.59-2.22-.82-.59-1.76-.89-2.82-.89-.8,0-1.54,.19-2.22,.58-.68,.39-1.22,.94-1.62,1.64-.4,.7-.6,1.5-.6,2.38s.21,1.65,.62,2.37c.41,.71,.96,1.28,1.65,1.7,.69,.42,1.45,.63,2.27,.63,1.1,0,2.05-.31,2.84-.93Z"/><path class="b" d="M202.72,16.3v19.11c0,.36,.29,.65,.65,.65h10.64c.36,0,.65,.29,.65,.65v1.75c0,.36-.29,.65-.65,.65h-13.78c-.36,0-.65-.29-.65-.65V16.3c0-.36,.29-.65,.65-.65h1.85c.36,0,.65,.29,.65,.65Z"/><path class="b" d="M228.93,36.23l.7,1.12c.2,.32,.08,.74-.25,.92-.54,.31-1.12,.56-1.72,.75-.83,.27-1.64,.41-2.42,.41-1.49,0-2.8-.31-3.91-.92-1.11-.62-1.97-1.46-2.58-2.55-.61-1.08-.91-2.3-.91-3.67s.33-2.52,.99-3.62c.66-1.09,1.56-1.96,2.71-2.6,1.15-.64,2.4-.96,3.76-.96,1.75,0,3.22,.51,4.4,1.54,1.05,.92,1.8,2.15,2.26,3.71,.1,.33-.09,.67-.41,.78l-9.25,3.24c-.42,.15-.59,.69-.29,1.02s.65,.61,1.04,.84c.66,.38,1.41,.57,2.25,.57,.94,0,1.86-.27,2.76-.82,.3-.18,.69-.08,.87,.22Zm-6.91-7.41c-.8,.87-1.13,1.83-1.19,3.04-.02,.32,.15,.6,.31,.68,.27,.14,.8-.06,.8-.06l6.03-2.23c.39-.14,.55-.61,.33-.96-.28-.42-.61-.79-1-1.09-.59-.45-1.34-.68-2.22-.68-1.23,0-2.25,.43-3.05,1.3Z"/><path class="b" d="M247.59,25.67c.49,0,.8,.52,.58,.95l-6.58,12.68s-.07,.15-.18,.15-.18-.14-.18-.14l-6.84-12.68c-.23-.43,.08-.96,.57-.96h2.1c.25,0,.48,.14,.59,.37l3.27,6.91c.24,.5,.96,.49,1.18-.02l3.02-6.87c.1-.24,.34-.39,.6-.39h1.88Z"/><path class="b" d="M265.69,26.32v12.13c0,.36-.29,.65-.65,.65h-1.72c-.36,0-.65-.29-.65-.65h0c0-.55-.63-.84-1.07-.5-.3,.23-.64,.46-1.01,.68-.91,.53-1.94,.8-3.08,.8-1.28,0-2.43-.28-3.45-.83-1.03-.55-1.84-1.36-2.43-2.42-.59-1.06-.89-2.32-.89-3.8s.31-2.75,.92-3.84c.62-1.09,1.45-1.94,2.5-2.53,1.05-.59,2.21-.89,3.49-.89,1.15,0,2.14,.25,2.98,.75,.41,.24,.78,.52,1.11,.83,.39,.37,1.03,.14,1.09-.4v-.05c.04-.33,.32-.58,.65-.58h1.56c.36,0,.65,.29,.65,.65Zm-4.53,9.68c.77-.6,1.27-1.41,1.49-2.43,.01-.05,.02-.11,.02-.16v-2.48c0-.07,0-.14-.03-.21-.27-.9-.8-1.64-1.59-2.22-.82-.59-1.76-.89-2.82-.89-.8,0-1.54,.19-2.22,.58-.68,.39-1.22,.94-1.62,1.64-.4,.7-.6,1.5-.6,2.38s.21,1.65,.62,2.37c.41,.71,.96,1.28,1.65,1.7,.69,.42,1.45,.63,2.27,.63,1.1,0,2.05-.31,2.84-.93Z"/><path class="b" d="M275.29,20.42v4.64c0,.36,.29,.65,.65,.65h2.37c.36,0,.65,.29,.65,.65v1.1c0,.36-.29,.65-.65,.65h-2.37c-.36,0-.65,.29-.65,.65v9.7c0,.36-.29,.65-.65,.65h-1.75c-.36,0-.65-.29-.65-.65v-9.7c0-.36-.29-.65-.65-.65h-1.17c-.36,0-.65-.29-.65-.65v-1.1c0-.36,.29-.65,.65-.65h1.17c.36,0,.65-.29,.65-.65v-4.64c0-.36,.29-.65,.65-.65h1.75c.36,0,.65,.29,.65,.65Z"/><path class="b" d="M296.41,26.32v12.13c0,.36-.29,.65-.65,.65h-1.72c-.36,0-.65-.29-.65-.65h0c0-.55-.63-.84-1.07-.5-.3,.23-.64,.46-1.01,.68-.91,.53-1.94,.8-3.08,.8-1.28,0-2.43-.28-3.45-.83-1.03-.55-1.84-1.36-2.43-2.42-.59-1.06-.89-2.32-.89-3.8s.31-2.75,.92-3.84c.62-1.09,1.45-1.94,2.5-2.53,1.05-.59,2.21-.89,3.49-.89,1.15,0,2.14,.25,2.98,.75,.41,.24,.78,.52,1.11,.83,.39,.37,1.03,.14,1.09-.4v-.05c.04-.33,.32-.58,.65-.58h1.56c.36,0,.65,.29,.65,.65Zm-4.53,9.68c.77-.6,1.27-1.41,1.49-2.43,.01-.05,.02-.11,.02-.16v-2.48c0-.07,0-.14-.03-.21-.27-.9-.8-1.64-1.59-2.22-.82-.59-1.76-.89-2.82-.89-.8,0-1.54,.19-2.22,.58-.68,.39-1.22,.94-1.62,1.64-.4,.7-.6,1.5-.6,2.38s.21,1.65,.62,2.37c.41,.71,.96,1.28,1.65,1.7,.69,.42,1.45,.63,2.27,.63,1.1,0,2.05-.31,2.84-.93Z"/></g><path class="b" d="M174.53,19.67c-.84-.29-1.5-1.11-1.75-2.17-.03-.12-.19-.12-.22,0-.25,1.05-.91,1.88-1.75,2.17-.11,.04-.11,.18,0,.22,.84,.29,1.5,1.11,1.75,2.17,.03,.12,.19,.12,.22,0,.25-1.05,.91-1.88,1.75-2.17,.11-.04,.11-.18,0-.22Z"/><path class="b" d="M106,19.31c-1.1-.38-1.98-1.47-2.31-2.86-.04-.15-.25-.15-.29,0-.33,1.39-1.21,2.48-2.31,2.86-.15,.05-.15,.24,0,.3,1.1,.38,1.98,1.47,2.31,2.86,.04,.15,.25,.15,.29,0,.33-1.39,1.21-2.48,2.31-2.86,.15-.05,.15-.24,0-.3Z"/><path class="b" d="M180.98,19.67c-.84-.29-1.5-1.11-1.75-2.17-.03-.12-.19-.12-.22,0-.25,1.05-.91,1.88-1.75,2.17-.11,.04-.11,.18,0,.22,.84,.29,1.5,1.11,1.75,2.17,.03,.12,.19,.12,.22,0,.25-1.05,.91-1.88,1.75-2.17,.11-.04,.11-.18,0-.22Z"/><path class="b" d="M256.88,19.67c-.84-.29-1.5-1.11-1.75-2.17-.03-.12-.19-.12-.22,0-.25,1.05-.91,1.88-1.75,2.17-.11,.04-.11,.18,0,.22,.84,.29,1.5,1.11,1.75,2.17,.03,.12,.19,.12,.22,0,.25-1.05,.91-1.88,1.75-2.17,.11-.04,.11-.18,0-.22Z"/><path class="b" d="M263.33,19.67c-.84-.29-1.5-1.11-1.75-2.17-.03-.12-.19-.12-.22,0-.25,1.05-.91,1.88-1.75,2.17-.11,.04-.11,.18,0,.22,.84,.29,1.5,1.11,1.75,2.17,.03,.12,.19,.12,.22,0,.25-1.05,.91-1.88,1.75-2.17,.11-.04,.11-.18,0-.22Z"/><path class="b" d="M287.62,19.67c-.84-.29-1.5-1.11-1.75-2.17-.03-.12-.19-.12-.22,0-.25,1.05-.91,1.88-1.75,2.17-.11,.04-.11,.18,0,.22,.84,.29,1.5,1.11,1.75,2.17,.03,.12,.19,.12,.22,0,.25-1.05,.91-1.88,1.75-2.17,.11-.04,.11-.18,0-.22Z"/><path class="b" d="M294.06,19.67c-.84-.29-1.5-1.11-1.75-2.17-.03-.12-.19-.12-.22,0-.25,1.05-.91,1.88-1.75,2.17-.11,.04-.11,.18,0,.22,.84,.29,1.5,1.11,1.75,2.17,.03,.12,.19,.12,.22,0,.25-1.05,.91-1.88,1.75-2.17,.11-.04,.11-.18,0-.22Z"/></g><g><path class="b" d="M27.96,63.26c-1.01,0-2.03-.06-3.05-.18-9.62-1.15-17.17-7.01-20.73-16.1-.12-.3-.04-.65,.19-.87,.23-.23,.58-.3,.88-.18,1.87,.76,4.42,1.09,7.82,1.01,7.68-.17,13.88-2.2,20.08-6.57,.37-.26,.87-.17,1.13,.2,.26,.37,.17,.87-.2,1.13-6.48,4.57-12.95,6.69-20.98,6.86-2.68,.06-4.9-.13-6.71-.57,3.56,7.59,10.29,12.46,18.71,13.46,13.14,1.56,25.11-7.85,26.68-21,.83-6.99-1.49-14.05-6.26-19.19-.07,.46-.15,.9-.21,1.16-3.31,14.31-11.73,27.63-23.11,36.54-.35,.28-.86,.21-1.14-.14-.28-.35-.21-.86,.14-1.14,11.09-8.69,19.3-21.67,22.53-35.63,.12-.53,.35-2.08,.38-2.6,.02-.31,.22-.59,.51-.71,.29-.12,.63-.05,.86,.16,5.92,5.56,8.88,13.68,7.92,21.73-1.55,13.01-12.64,22.6-25.44,22.6Z"/><path class="b" d="M39.69,26.77s-3.24-.24-5.45-2.74c-1.09-1.24-1.45-2.69-1.45-2.71-.1-.44-.54-.71-.98-.6-.44,.1-.71,.54-.61,.98,.02,.08,.45,1.85,1.82,3.41,.4,.45,.82,.83,1.25,1.17-1.39,.23-3.71,.16-6.06-1.98-1.21-1.1-2.11-2.89-2.12-2.91-.2-.4-.69-.57-1.09-.36-.4,.2-.57,.69-.37,1.09,.04,.08,1.04,2.08,2.48,3.39,.32,.29,.63,.54,.94,.77-1.17,.29-3.13,.35-5.58-1.23-2.09-1.36-2.65-3.59-2.66-3.63-.1-.44-.54-.71-.97-.61-.44,.1-.71,.54-.61,.97,0,.04,.09,.38,.3,.89-.51,.58-1.43,1.74-2.08,3.14-.46,1-.68,1.88-.69,1.92-.11,.44,.15,.88,.59,.99,.07,.02,.13,.02,.2,.02,.36,0,.69-.25,.79-.61,0,0,.2-.78,.59-1.64,.42-.91,.98-1.71,1.43-2.27,.51,.75,1.23,1.55,2.23,2.2,1.97,1.27,3.71,1.66,5.11,1.66,1.56,0,2.67-.48,3.17-.75,1.19,.51,2.32,.68,3.28,.68,1.51,0,2.61-.41,2.98-.57,1.8,.85,3.35,.96,3.45,.97,.02,0,.03,0,.05,0,.43,0,.78-.33,.81-.76,.03-.45-.31-.83-.76-.86Z"/><path class="b" d="M22.42,33.75c-.4-.44-.85-.84-1.31-1.19-.03-.03-.06-.05-.1-.07-2.59-1.94-5.91-2.58-8.25-2.5-3.38,.12-6.27,1.78-7.73,4.44-2.42,4.41-1.08,9.12-1.02,9.32,.1,.35,.43,.58,.78,.58,.08,0,.15-.01,.23-.03,.43-.13,.68-.58,.55-1.01-.01-.04-1.2-4.28,.89-8.08,1.2-2.19,3.52-3.5,6.37-3.6,1.61-.06,4.55,.34,6.91,1.96-.04,.63-.24,1.66-.86,2.2-.34,.3-.79,.44-1.36,.42,.17-.33,.28-.64,.34-.9,.1-.44-.17-.87-.61-.97-.43-.1-.87,.17-.97,.61-.02,.08-.49,2.06-2.74,2.13-.45,.01-.8,.39-.79,.84,.01,.44,.38,.79,.81,.79h.03c1.22-.04,2.13-.47,2.8-1.05,.07,.04,.15,.07,.24,.09,.34,.06,.67,.09,.98,.09,.93,0,1.72-.28,2.35-.83,.69-.61,1.05-1.44,1.23-2.18,.01,.01,.02,.02,.03,.04,2.19,2.42,2.28,5.48,2.15,7.57-.03,.45,.31,.83,.76,.86,.46,.03,.83-.31,.86-.76,.15-2.39,.04-5.89-2.56-8.76Z"/><path class="b" d="M20.13,4.35c-.48,.03-.99-.19-1.34-.61-.04-.05-.13,0-.12,.05,.08,.54-.09,1.06-.44,1.4-.05,.05-.01,.11,.05,.1,.48-.08,.99,.14,1.32,.56,.04,.05,.11,.01,.1-.05-.09-.53,.08-1.05,.46-1.35,.05-.04,.03-.11-.04-.1Z"/><path class="b" d="M26.76,3.16c-.48-.1-.9-.45-1.13-.94-.02-.05-.12-.04-.13,.02-.07,.54-.37,1-.8,1.23-.06,.03-.04,.1,.02,.11,.48,.05,.91,.4,1.12,.89,.02,.05,.11,.04,.11-.02,.05-.53,.36-.99,.81-1.18,.06-.03,.05-.1-.01-.11Z"/><path class="b" d="M33.72,2.99c-.44-.22-.77-.66-.87-1.2-.01-.06-.11-.07-.13-.01-.2,.5-.62,.87-1.1,.99-.06,.02-.07,.09,0,.11,.46,.17,.79,.61,.87,1.15,0,.06,.09,.07,.12,.01,.19-.5,.61-.87,1.1-.93,.07,0,.08-.08,.02-.11Z"/><path class="b" d="M42.95,16.94c-.59-.57-1.27-1.15-2.04-1.72-1.32-.99-4.06-2.77-7.86-3.89l-.03-5.42c0-.33-.21-.63-.52-.75-.31-.12-.67-.04-.89,.21l-2.6,2.84-2.33-2.29c-.18-.18-.44-.26-.69-.22-.25,.04-.47,.19-.59,.41l-1.56,2.82-2.85-2.03c-.28-.2-.66-.2-.94,0-.28,.2-.41,.55-.32,.88l1.45,5.31c-2.1,1.48-2.75,2.22-3.79,3.38l-.17,.19c-4.39,4.89-4.14,10.69-4.13,10.94,.02,.43,.38,.77,.81,.77h.04c.45-.02,.79-.41,.77-.86,0-.05-.23-5.37,3.71-9.77l.17-.19c1.03-1.15,1.62-1.8,3.72-3.28,.29,.03,.77,.07,1.43,.07,.9,0,2.15-.07,3.74-.3,2.51-.37,4.16-.97,4.8-1.23,3.71,1.04,6.37,2.76,7.64,3.71,.71,.53,1.34,1.07,1.88,1.59,.16,.15,.36,.23,.57,.23s.43-.08,.58-.25c.31-.32,.3-.84-.02-1.15Zm-15.69-4.51c-2.29,.34-3.79,.31-4.5,.25l-.86-3.12,1.73,1.23c.19,.13,.43,.18,.65,.13,.23-.05,.42-.2,.53-.4l1.49-2.68,2.17,2.13c.16,.15,.38,.24,.59,.23,.22,0,.43-.1,.58-.26l1.77-1.93,.02,3.4c-.69,.26-2.13,.72-4.17,1.03Z"/></g></svg>